<svg aria-label="hidden" width="150px" height="219px" viewBox="0 0 150 219" version="1.1" xmlns="http://www.w3.org/2000/svg" xmlns:xlink="http://www.w3.org/1999/xlink">
    <g id="Page-1" stroke="none" stroke-width="1" fill="none" fill-rule="evenodd">
        <g id="Desktop-HD-Copy" transform="translate(-462.000000, -117.000000)">
            <g id="Content" transform="translate(132.000000, 106.000000)">
                <g id="Logo" transform="translate(331.000000, 11.000000)">
                    <circle fill="#EAEAEA" cx="69" cy="98" r="69"></circle>
                    <path d="M8.94857063,109.625 C12.8635706,101.795 16.1035706,93.29 25.0135706,90.455 C25.2835706,91.67 24.6085706,94.91 25.6885706,95.855 C20.1535706,100.58 15.8335706,106.25 8.94857063,109.625 Z M60.3835706,93.02 C60.2485706,92.615 60.6535706,92.615 61.0585706,92.48 C60.9235706,92.885 60.6535706,93.29 60.3835706,93.02 Z M43.6435706,105.845 C43.5085706,105.98 43.3735706,106.25 42.9685706,106.25 C43.1035706,105.98 43.2385706,105.71 43.6435706,105.845 Z M60.5185706,95.855 C60.5185706,96.26 60.1135706,96.26 59.9785706,96.53 C60.3835706,96.665 60.9235706,96.125 60.5185706,95.855 Z M60.2485706,97.07 C59.7085706,96.935 59.7085706,97.34 59.4385706,97.205 C59.3035706,97.88 60.3835706,97.61 60.2485706,97.07 Z M27.0385706,97.745 C26.9035706,97.205 27.5785706,97.61 27.5785706,97.205 C28.1185706,97.475 27.1735706,98.015 27.0385706,97.745 Z M26.2285706,98.555 C26.2285706,98.285 26.3635706,98.15 26.6335706,98.15 C26.6335706,98.42 26.6335706,98.555 26.4985706,98.69 C26.3635706,98.69 26.3635706,98.555 26.2285706,98.555 Z M42.9685706,109.22 C42.9685706,108.95 43.5085706,109.085 43.5085706,108.68 C43.2385706,108.68 42.5635706,109.085 42.9685706,109.22 Z M39.9985706,110.165 C39.8635706,109.625 40.4035706,109.625 40.9435706,109.625 C40.8085706,110.03 40.2685706,110.03 39.9985706,110.165 Z M40.2685706,110.705 C40.5385706,110.165 41.0785706,110.03 41.6185706,109.895 C41.4835706,110.435 40.8085706,110.435 40.2685706,110.705 Z M7.05857063,110.705 C6.78857063,110.705 6.65357063,110.435 6.38357063,110.435 C6.38357063,110.165 7.32857063,110.165 7.05857063,110.705 Z M30.4135706,100.31 C30.0085706,103.28 30.1435706,107.465 30.2785706,110.165 C31.2235706,111.92 31.8985706,113 33.9235706,113.675 C35.1385706,113.675 36.0835706,114.08 37.2985706,113.945 C46.2085706,109.76 53.6335706,105.035 59.4385706,98.015 C57.5485706,98.42 56.0635706,100.04 55.6585706,100.985 C55.3885706,100.04 54.9835706,100.85 54.7135706,101.255 C54.9835706,101.39 55.3885706,100.85 55.5235706,101.255 C50.7985706,103.415 47.2885706,108.005 41.7535706,109.895 C41.7535706,109.49 42.2935706,109.625 42.4285706,109.22 C41.8885706,109.085 41.3485706,109.895 41.0785706,109.49 C44.4535706,108.005 46.7485706,106.385 49.8535706,104.63 C54.5785706,99.77 61.8685706,96.125 62.8135706,88.97 C54.5785706,96.935 47.0185706,106.52 33.5185706,108.68 C32.5735706,106.385 35.0035706,103.415 33.7885706,101.39 C35.5435706,99.635 35.1385706,94.64 32.7085706,93.695 C30.9535706,93.425 29.7385706,94.505 28.6585706,94.505 C29.4685706,93.155 30.2785706,91.805 30.0085706,89.78 C29.4685706,86.135 25.9585706,85.19 22.9885706,84.515 C19.8835706,84.515 17.5885706,86.27 15.6985706,87.755 C10.7035706,94.37 5.57357063,100.58 3.68357063,110.03 C4.08857063,110.705 4.35857063,111.38 4.76357063,112.055 C4.76357063,112.595 5.30357063,111.65 5.30357063,112.325 C5.57357063,113.135 6.11357063,113.81 6.38357063,114.755 C14.2135706,117.86 21.2335706,106.25 26.7685706,102.74 C27.5785706,102.2 28.3885706,102.2 28.9285706,101.525 C28.8015118,101.016765 29.750716,100.747699 30.3130282,100.380152 L30.4135706,100.31 L30.4135706,100.31 Z M7.86857063,108.005 C7.86857063,108.815 7.46357063,109.085 7.19357063,109.49 C6.94157063,109.238 7.51277063,108.5156 7.80957063,108.09112 L7.86857063,108.005 L7.86857063,108.005 Z M44.0485706,105.845 C50.1235706,102.335 54.9835706,97.61 60.2485706,93.155 C55.5235706,99.23 48.5035706,104.225 41.2135706,108.005 C40.6735706,108.005 41.0785706,107.33 41.2135706,106.925 C42.0235706,107.6 42.2935706,106.79 42.5635706,106.25 C43.2385706,106.25 42.5635706,106.52 42.5635706,106.79 C43.1035706,106.52 43.7785706,106.385 44.0485706,105.845 Z M26.2285706,98.555 C26.2285706,98.96 25.8235706,98.825 25.8235706,99.095 C25.5535706,99.095 25.8235706,98.42 26.2285706,98.555 Z M74.6228569,66.965 C74.4878569,65.075 74.4878569,63.59 73.9478569,62.375 C71.5178569,62.78 70.5728569,63.725 67.7378569,63.725 C67.3328569,64.535 67.7378569,65.21 67.6028569,66.425 C69.2228569,68.18 73.0028569,70.475 74.6228569,66.965 Z M50.0528569,177.53 C49.6478569,177.935 49.7828569,177.125 50.0528569,176.99 L50.0528569,177.53 L50.0528569,177.53 Z M61.2578569,116.24 C61.2578569,115.7 61.9328569,115.835 62.4728569,115.835 C62.3378569,116.24 61.6628569,116.105 61.2578569,116.24 Z M59.2328569,116.78 C59.3678569,116.24 60.1778569,116.105 60.9878569,116.105 C60.7178569,116.645 59.7728569,116.645 59.2328569,116.78 Z M60.3128569,117.05 C60.4478569,116.645 60.9878569,116.645 61.3928569,116.645 C61.3928569,117.185 60.5828569,117.32 60.3128569,117.05 Z M59.3678569,117.59 C58.8278569,117.32 59.7728569,117.185 60.0428569,117.05 C60.1778569,117.725 59.2328569,117.185 59.3678569,117.59 Z M43.9778569,123.125 C47.0828569,120.155 52.8878569,118.265 57.0728569,117.455 C52.2128569,118.94 47.8928569,120.83 43.9778569,123.125 Z M60.8528569,118.265 C60.8528569,117.995 61.1228569,117.86 61.3928569,117.86 C61.3928569,118.13 61.1228569,118.265 60.8528569,118.265 Z M15.4928569,196.835 C14.9528569,196.43 13.8728569,196.835 13.4678569,196.43 C9.14785688,197.375 6.31285688,194 5.36785688,189.95 C5.77285688,189.275 5.77285688,188.735 5.09785688,188.33 C5.36785688,187.52 4.55785688,186.575 4.42285688,185.63 C5.09785688,184.28 3.88285688,183.2 4.96285688,182.255 C4.96285688,182.525 4.69285688,183.335 5.09785688,183.335 C5.23285688,182.66 5.36785688,181.31 4.96285688,180.365 C5.77285688,177.8 6.58285688,173.615 5.90785688,171.725 C6.04285688,171.185 6.44785688,171.995 6.71785688,171.455 C6.31285688,170.375 7.12285688,169.565 7.39285688,168.485 C7.12285688,167.945 7.12285688,168.755 6.71785688,168.62 C6.71785688,167.81 7.39285688,168.08 7.66285688,167.945 L7.66285688,167.135 L7.66285688,167.135 C7.12285688,167 7.52785688,167.675 6.98785688,167.405 C7.12285688,167 7.12285688,166.595 7.39285688,166.325 C7.25785688,165.92 7.52785688,165.92 7.52785688,165.515 C7.66285688,165.515 7.79785688,165.65 7.93285688,165.65 C8.60785688,165.245 8.74285688,164.3 9.01285688,163.355 C8.47285688,163.49 8.33785688,164.165 8.20285688,164.57 C7.39285688,163.49 9.01285688,162.41 9.14785688,160.925 C9.55285688,161.06 9.95785688,161.06 9.95785688,161.6 C14.1428569,153.23 20.6228569,145.535 26.5628569,138.785 C28.5878569,138.11 29.6678569,136.355 31.0178569,134.87 C31.6928569,135.005 31.6928569,134.6 31.9628569,135.005 C32.6378569,133.655 34.7978569,132.575 36.0128569,131.225 C36.5528569,131.36 35.8778569,131.63 35.8778569,131.765 C36.9578569,131.225 38.0378569,130.55 38.9828569,129.74 C38.0378569,129.875 37.6328569,130.55 36.8228569,130.82 C37.7678569,129.335 40.0628569,129.065 41.1428569,127.58 C41.5478569,127.58 41.5478569,127.85 41.6828569,127.985 C42.0878569,126.77 43.3028569,126.365 44.2478569,125.825 C44.2478569,126.5 43.4378569,126.365 43.3028569,126.77 C44.9228569,125.69 46.1378569,125.015 47.4878569,123.935 C48.0278569,124.07 47.2178569,124.34 47.2178569,124.475 C50.0528569,123.26 53.4278569,121.235 56.3978569,120.02 C56.6678569,120.02 56.5328569,120.29 56.5328569,120.425 C58.2878569,120.29 58.5578569,118.67 60.1778569,118.265 C60.1778569,118.67 59.3678569,118.4 59.3678569,118.805 C60.0428569,119.075 60.8528569,118.13 61.9328569,118.805 C58.5578569,139.73 55.1828569,158.9 44.6528569,174.425 C44.6528569,174.83 45.0578569,174.695 45.0578569,175.1 C44.6528569,175.91 44.2478569,176.72 43.5728569,177.125 C43.7078569,176.315 44.1128569,175.775 44.3828569,175.1 C37.3628569,184.685 29.2628569,194.945 15.4928569,196.835 Z M53.9678569,119.21 C54.2378569,118.805 54.7778569,118.67 55.3178569,118.535 C55.1828569,119.075 54.6428569,119.21 53.9678569,119.21 Z M58.4228569,119.21 L58.0178569,119.21 L58.0178569,119.21 L58.0178569,118.805 L58.0178569,118.805 C58.1528569,118.94 58.1528569,118.805 58.1528569,118.67 L58.5578569,118.67 L58.5578569,118.67 L58.5578569,119.075 L58.5578569,119.075 C58.4228569,118.94 58.4228569,119.075 58.4228569,119.21 Z M49.9178569,120.965 C50.4578569,120.02 52.2128569,119.615 53.0228569,119.615 C52.2128569,120.29 50.8628569,120.425 49.9178569,120.965 Z M54.9128569,120.29 C54.9128569,120.02 55.3178569,120.155 55.3178569,119.885 C55.7228569,119.885 55.3178569,120.425 54.9128569,120.29 Z M54.6428569,120.695 L54.3728569,120.695 L54.3728569,120.695 L54.3728569,120.29 L54.3728569,120.29 L54.6428569,120.29 L54.6428569,120.29 L54.6428569,120.695 L54.6428569,120.695 Z M43.9778569,124.07 C45.0578569,122.585 47.2178569,122.18 48.8378569,121.1 C48.1628569,122.45 45.3278569,122.99 43.9778569,124.07 Z M50.7278569,122.315 L50.4578569,122.315 L50.4578569,122.315 L50.4578569,121.91 L50.4578569,121.91 L50.7278569,121.91 L50.7278569,121.91 L50.7278569,122.315 L50.7278569,122.315 Z M48.7028569,122.315 C48.7028569,122.18 48.8378569,122.045 48.8378569,121.91 L49.1078569,121.91 L49.1078569,121.91 C49.2428569,122.315 48.8378569,122.315 48.7028569,122.315 Z M47.3528569,123.125 L47.0828569,123.125 L47.0828569,123.125 L47.0828569,122.72 L47.0828569,122.72 L47.3528569,122.72 L47.3528569,122.72 L47.3528569,123.125 L47.3528569,123.125 Z M42.4928569,124.07 C41.6828569,123.53 43.0328569,122.99 43.5728569,122.72 L43.5728569,123.395 L43.5728569,123.395 C42.8978569,123.395 42.8978569,123.8 42.4928569,124.07 Z M40.7378569,124.475 C41.1428569,124.205 41.4128569,123.53 41.9528569,123.935 C41.9528569,124.475 41.1428569,124.88 40.7378569,124.475 Z M44.2478569,124.745 C44.5178569,124.205 44.7878569,123.935 45.4628569,123.935 C45.1928569,124.34 44.7878569,124.61 44.2478569,124.745 Z M39.9278569,125.15 C39.3878569,124.88 40.3328569,124.61 40.3328569,124.34 C40.8728569,124.745 40.0628569,125.015 39.9278569,125.15 Z M39.2528569,126.77 C40.0628569,125.69 41.5478569,125.15 42.7628569,124.475 C42.0878569,125.69 40.4678569,126.095 39.2528569,126.77 Z M42.2228569,126.095 C41.9528569,125.555 43.0328569,125.015 43.8428569,124.88 C43.5728569,125.555 42.4928569,125.555 42.2228569,126.095 Z M37.9028569,126.635 C37.9028569,126.23 38.1728569,126.095 38.5778569,126.095 C38.4428569,126.365 38.3078569,126.635 37.9028569,126.635 Z M41.5478569,126.095 C41.5478569,126.593462 41.2027681,126.631805 40.9373152,126.634754 L40.8728569,126.635 L40.8728569,126.635 C41.0078569,126.365 41.1428569,126.095 41.5478569,126.095 Z M40.3328569,127.175 L40.0628569,127.175 L40.0628569,127.175 C40.0628569,127.04 39.9278569,127.04 39.9278569,126.905 C39.7928569,126.635 40.6028569,126.77 40.3328569,127.175 Z M38.9828569,126.77 C38.8478569,127.31 38.4428569,127.58 37.9028569,127.58 C38.1728569,127.31 38.4428569,126.905 38.9828569,126.77 Z M35.8778569,128.12 C36.0128569,127.31 36.8228569,127.04 37.6328569,126.77 C37.0928569,127.31 36.4178569,127.715 35.8778569,128.12 Z M33.0428569,129.875 C33.7178569,129.2 34.5278569,128.525 35.4728569,128.12 C34.9328569,128.93 33.9878569,129.47 33.0428569,129.875 Z M36.6878569,129.605 C36.5528569,128.93 36.9578569,128.795 37.4978569,128.795 C37.3628569,129.2 37.0928569,129.47 36.6878569,129.605 Z M31.9628569,131.225 L31.6928569,131.225 L31.6928569,131.225 L31.6928569,130.82 L31.6928569,130.82 C31.8278569,130.82 31.8278569,130.82 31.8278569,130.685 C32.0978569,130.82 32.0978569,130.955 31.9628569,131.225 Z M33.3128569,132.035 L32.9078569,132.035 L32.9078569,132.035 L32.9078569,131.63 L32.9078569,131.63 L33.3128569,131.63 L33.3128569,131.63 L33.3128569,132.035 L33.3128569,132.035 Z M34.6628569,132.845 C35.0678569,132.845 35.7428569,132.17 35.3378569,132.035 C35.2028569,132.305 34.7978569,132.44 34.6628569,132.845 Z M28.8578569,134.465 C28.8578569,134.06 29.1278569,134.06 29.3978569,134.06 C29.2628569,134.33 29.1278569,134.465 28.8578569,134.465 Z M27.3728569,135.68 C27.3728569,135.275 27.6428569,135.14 28.0478569,135.005 C28.0478569,135.545 27.7778569,135.68 27.3728569,135.68 Z M22.9178569,140.405 C23.7278569,138.785 25.2128569,137.57 26.5628569,136.49 C25.6178569,137.975 24.1328569,139.19 22.9178569,140.405 Z M60.3128569,137.975 C59.9078569,137.84 60.1778569,137.03 60.8528569,137.165 C60.5828569,137.435 60.4478569,137.705 60.3128569,137.975 Z M59.6378569,139.325 C59.9078569,138.92 59.7728569,138.11 60.4478569,138.11 C60.3128569,138.65 60.1778569,139.19 59.6378569,139.325 Z M25.6178569,138.785 C25.4828569,138.38 26.0228569,138.515 26.0228569,138.11 C26.2928569,138.245 26.0228569,138.92 25.6178569,138.785 Z M21.9728569,141.35 C21.5678569,141.35 21.8378569,140.81 22.2428569,140.945 C22.1078569,141.08 21.9728569,141.215 21.9728569,141.35 Z M59.5028569,141.755 C58.9628569,141.62 59.5028569,141.215 59.6378569,141.08 C60.1778569,141.215 59.5028569,141.485 59.5028569,141.755 Z M58.9628569,143.105 C58.9628569,142.7 59.0978569,142.43 59.5028569,142.565 C59.5028569,142.97 59.3678569,143.24 58.9628569,143.105 Z M58.8278569,144.32 C58.4228569,144.185 58.6928569,143.51 59.2328569,143.645 C59.2328569,144.05 58.8278569,143.915 58.8278569,144.32 Z M19.1378569,144.185 C19.1378569,143.645 19.5428569,143.645 19.9478569,143.645 C19.8128569,143.915 19.6778569,144.185 19.1378569,144.185 Z M18.1928569,145.94 C17.7878569,145.4 18.4628569,144.59 19.0028569,144.455 C19.0028569,145.265 18.1928569,145.265 18.1928569,145.94 Z M57.8828569,147.02 C58.2878569,146.615 58.1528569,145.535 58.5578569,145.13 C58.6928569,145.535 58.6928569,147.02 57.8828569,147.02 Z M16.0328569,149.585 C15.8978569,148.37 17.5178569,147.83 17.9228569,146.615 C18.1928569,146.615 18.4628569,148.1 17.6528569,147.965 C17.7878569,147.965 17.9228569,147.83 17.9228569,147.56 C16.9778569,147.965 16.7078569,149.045 16.0328569,149.585 Z M58.0178569,149.45 C57.2078569,149.45 57.2078569,147.965 58.0178569,147.83 C58.1528569,148.235 57.6128569,148.37 58.1528569,148.37 C58.1528569,148.91 57.7478569,148.91 58.0178569,149.45 Z M15.7628569,148.505 C15.6278569,147.965 16.1678569,148.235 16.3028569,147.83 C16.7078569,147.965 16.1678569,148.64 15.7628569,148.505 Z M57.2078569,150.665 C56.8028569,150.53 57.3428569,150.125 57.2078569,149.855 C57.6128569,149.855 58.0178569,149.855 57.8828569,150.395 C57.4778569,150.395 57.3428569,150.125 57.2078569,150.665 Z M14.1428569,152.42 C14.1428569,151.205 15.0878569,150.935 15.4928569,149.99 C15.4928569,150.665 14.6828569,151.88 14.1428569,152.42 Z M56.9378569,153.23 C56.5328569,152.96 57.2078569,152.42 56.3978569,152.69 C56.6678569,152.015 56.9378569,152.15 56.8028569,151.205 C57.0728569,151.34 57.2078569,151.07 57.2078569,150.8 C57.7478569,151.34 57.0728569,152.555 56.9378569,153.23 Z M13.0628569,152.825 L12.6578569,152.825 L12.6578569,152.825 L12.6578569,152.555 L12.6578569,152.555 L13.0628569,152.555 L13.0628569,152.555 L13.0628569,152.825 L13.0628569,152.825 Z M58.0178569,153.095 L57.7478569,153.095 L57.7478569,153.095 L57.7478569,152.69 L57.7478569,152.69 L58.0178569,152.69 L58.0178569,152.69 L58.0178569,153.095 L58.0178569,153.095 Z M13.4678569,153.5 L13.0628569,153.5 L13.0628569,153.5 L13.0628569,153.23 L13.0628569,153.23 C13.3328569,153.095 13.4678569,153.23 13.4678569,153.5 Z M11.9828569,154.04 C11.7128569,153.905 12.1178569,153.23 12.5228569,153.23 C12.3878569,153.5 12.1178569,153.77 11.9828569,154.04 Z M55.7228569,155.525 C56.2628569,155.12 55.4528569,154.175 56.3978569,154.04 C56.2628569,153.77 55.9928569,153.77 56.1278569,153.23 C56.3978569,153.23 56.3978569,153.635 56.8028569,153.635 C56.3978569,154.31 56.5328569,155.255 55.7228569,155.525 Z M57.6128569,154.04 C57.2078569,153.905 57.4778569,153.77 57.6128569,153.5 C57.8828569,153.635 57.6128569,153.77 57.6128569,154.04 Z M13.0628569,154.445 L12.6578569,154.445 L12.6578569,154.445 L12.6578569,154.175 L12.6578569,154.175 C12.7928569,154.175 12.7928569,154.175 12.7928569,154.04 C13.1978569,154.175 13.1978569,154.31 13.0628569,154.445 Z M53.1578569,163.22 C53.1578569,163.115 52.9945235,163.173333 52.9219309,163.267963 L52.915,163.278 L53.0150531,163.00394 C53.73476,161.041782 55.0875628,157.700882 55.7228569,155.795 C54.6814283,161.392679 51.882589,167.366945 49.0209851,172.386292 L48.705,172.935 L49.0676703,172.240974 C50.4930048,169.393254 51.5378569,165.961538 53.1578569,163.22 Z M11.4428569,157.145 C10.6328569,156.875 11.4428569,156.47 11.5778569,156.065 C11.9828569,156.335 11.4428569,156.875 11.4428569,157.145 Z M56.3978569,157.145 C56.5328569,157.01 56.3978569,156.47 56.9378569,156.605 C56.9378569,157.01 56.8028569,157.145 56.3978569,157.145 Z M11.4428569,157.955 L10.9028569,157.955 L10.9028569,157.955 L10.9028569,157.55 L10.9028569,157.55 C11.1728569,157.55 11.4428569,157.685 11.4428569,157.955 Z M10.6328569,159.71 C10.2278569,159.575 9.95785688,159.44 9.95785688,159.035 C10.3628569,159.035 10.4978569,159.305 10.6328569,159.71 Z M9.28285688,160.52 C9.14785688,159.98 9.68785688,159.98 9.95785688,160.115 C9.82285688,160.52 9.68785688,160.52 9.28285688,160.52 Z M9.41785688,162.41 C9.28285688,162.005 9.14785688,162.95 8.60785688,162.815 C8.47285688,163.355 9.14785688,162.95 9.01285688,163.355 C9.55285688,163.49 9.28285688,162.68 9.41785688,162.41 Z M52.3478569,167.135 C52.2128569,167.135 52.2128569,166.865 52.2128569,166.595 C52.4828569,166.595 52.4828569,166.73 52.4828569,167 C52.3478569,167 52.3478569,167 52.3478569,167.135 Z M6.17785688,170.105 C6.31285688,169.97 6.17785688,169.43 6.71785688,169.565 C6.71785688,169.97 6.58285688,170.105 6.17785688,170.105 Z M51.1328569,170.24 L50.7278569,170.24 L50.7278569,170.24 L50.7278569,169.835 L50.7278569,169.835 L51.1328569,169.835 L51.1328569,169.835 L51.1328569,170.24 L51.1328569,170.24 Z M52.3478569,172.67 C52.3478569,172.265 52.6178569,171.995 53.0228569,171.995 C52.7528569,172.13 52.8878569,172.67 52.3478569,172.67 Z M49.1078569,174.155 C48.7028569,174.02 48.7028569,173.345 49.2428569,173.48 C49.2428569,173.75 49.1078569,173.75 49.1078569,174.155 Z M47.6228569,174.695 C47.6228569,174.02 48.1628569,173.885 48.2978569,173.48 C48.5678569,173.75 48.1628569,174.695 47.6228569,174.695 Z M48.0278569,175.37 C47.8928569,174.965 48.4328569,174.965 48.4328569,174.56 C48.9728569,174.83 48.4328569,175.505 48.0278569,175.37 Z M45.5978569,179.42 C46.2728569,178.205 46.9478569,176.99 47.6228569,175.775 C47.8928569,176.72 46.5428569,178.61 45.5978569,179.42 Z M42.7628569,178.475 C42.6278569,177.935 43.3028569,178.205 43.1678569,177.665 C43.8428569,177.665 43.3028569,178.61 42.7628569,178.475 Z M49.1078569,178.745 L48.8378569,178.745 L48.8378569,178.745 L48.8378569,178.475 L48.8378569,178.475 C48.9728569,178.475 48.9728569,178.475 48.9728569,178.34 L49.2428569,178.34 L49.2428569,178.34 L49.2428569,178.61 L49.2428569,178.61 C49.1078569,178.61 49.1078569,178.745 49.1078569,178.745 Z M4.42285688,181.58 L4.42285688,181.175 L4.42285688,181.175 C4.55785688,181.31 4.55785688,181.175 4.55785688,181.04 C4.82785688,181.04 4.82785688,181.85 4.42285688,181.58 Z M41.4128569,181.58 C41.0078569,181.445 41.2778569,181.31 41.4128569,181.04 C41.6828569,181.175 41.4128569,181.31 41.4128569,181.58 Z M3.61285688,182.525 L3.61285688,182.255 L3.61285688,182.255 C3.74785688,182.255 3.74785688,182.12 3.74785688,181.985 C4.01785688,181.985 4.01785688,182.795 3.61285688,182.525 Z M40.1978569,183.2 L39.9278569,183.2 L39.9278569,183.2 L39.9278569,182.795 L39.9278569,182.795 C40.0628569,182.93 40.0628569,182.795 40.0628569,182.66 L40.3328569,182.66 L40.3328569,182.66 L40.3328569,183.065 L40.3328569,183.065 C40.1978569,182.93 40.1978569,183.065 40.1978569,183.2 Z M3.74785688,184.28 C3.88285688,183.875 3.88285688,184.01 3.74785688,183.47 C4.42285688,183.335 4.42285688,184.415 3.74785688,184.28 Z M38.7128569,184.415 C38.8478569,184.145 39.2528569,184.01 39.3878569,183.605 C39.7928569,183.875 39.1178569,184.415 38.7128569,184.415 Z M38.1728569,185.09 C38.1728569,184.82 38.4428569,184.82 38.7128569,184.82 C38.7128569,185.09 38.4428569,185.225 38.1728569,185.09 Z M36.1478569,187.655 C36.2828569,187.385 36.2828569,186.98 36.6878569,187.115 C36.5528569,187.385 36.5528569,187.79 36.1478569,187.655 Z M35.8778569,187.925 C35.4728569,188.6 34.9328569,189.14 34.2578569,189.545 C34.5278569,188.735 35.0678569,188.195 35.8778569,187.925 Z M30.4778569,193.055 C30.0728569,192.785 30.7478569,192.245 31.1528569,192.245 C31.1528569,192.785 30.6128569,192.785 30.4778569,193.055 Z M28.1828569,196.295 C27.9128569,196.295 27.9128569,196.025 27.9128569,195.62 C28.4528569,195.62 28.4528569,196.025 28.1828569,196.295 Z M58.6928569,116.78 C58.5578569,117.185 57.6128569,116.915 57.3428569,117.455 C56.9571426,116.940714 58.0408161,116.793776 58.61137,116.780948 L58.6928569,116.78 L58.6928569,116.78 Z M32.0978569,131.765 C33.7178569,130.269615 35.4528865,128.88926 37.4091268,127.836297 L37.9028569,127.58 L37.9028569,127.58 C36.2828569,129.2 33.9878569,130.415 32.0978569,131.765 Z M32.0978569,131.765 C31.9628569,132.845 30.4778569,132.575 30.4778569,133.79 C29.3020504,133.136774 31.4134448,132.357118 32.0402969,131.818087 L32.0978569,131.765 L32.0978569,131.765 Z M50.5928569,171.185 C50.5928569,171.86 50.3228569,172.265 49.7828569,172.265 C50.0303569,171.89375 50.0509819,171.409063 50.4686381,171.226875 L50.5928569,171.185 L50.5928569,171.185 Z M34.2578569,189.545 C33.5828569,190.085 33.3128569,191.03 32.5028569,191.3 C32.7520876,190.552308 33.3464072,190.034675 34.0734531,189.640919 L34.2578569,189.545 L34.2578569,189.545 Z M50.0528569,177.53 C50.1878569,177.53 50.3228569,177.395 50.4578569,177.395 C50.7278569,176.855 50.0528569,176.855 50.4578569,176.045 C51.9428569,174.965 54.1028569,171.725 53.9678569,169.565 C55.3178569,169.025 55.4528569,167.27 55.7228569,166.46 C55.5878569,166.595 55.4528569,166.73 55.3178569,166.595 C55.7228569,166.19 55.4528569,165.65 55.9928569,165.38 C56.1278569,165.515 55.9928569,165.785 56.2628569,165.785 C56.9378569,162.95 58.9628569,161.195 58.9628569,157.685 C60.3128569,155.93 60.1778569,152.96 61.3928569,151.205 C60.9878569,151.205 60.8528569,150.665 60.5828569,150.395 C60.9878569,150.26 61.3928569,150.125 61.6628569,149.855 C61.5278569,147.695 63.0128569,146.615 62.4728569,144.32 C63.4178569,143.915 63.5528569,142.16 63.5528569,140.675 C65.9828569,133.25 65.9828569,124.88 68.6828569,117.05 C76.9178569,115.295 87.8528569,118.13 90.4178569,124.475 C91.4978569,122.99 88.9328569,121.235 87.9878569,120.02 C82.8578569,114.89 76.9178569,114.62 68.4128569,114.215 C68.9528569,105.575 70.9778569,97.205 70.1678569,89.24 C68.9528569,85.19 61.6628569,86.81 62.6078569,90.995 C63.1478569,90.86 63.4178569,91.13 63.5528569,91.535 C65.0378569,98.42 63.4178569,108.815 62.4728569,115.295 C42.0878569,119.75 28.5878569,130.955 16.3028569,143.51 C16.3028569,143.915 15.8978569,143.915 16.0328569,144.455 C7.25785688,153.095 1.72285688,166.595 -0.302143125,179.825 C-0.032143125,188.06 2.66785688,196.7 9.28285688,200.075 L9.28285688,200.615 L9.28285688,200.615 C17.3828569,203.855 26.2928569,201.695 31.4228569,197.105 C31.4228569,197.375 31.5578569,197.645 31.8278569,197.645 C32.2328569,196.97 32.6378569,196.97 32.6378569,196.16 C33.0428569,196.025 32.9078569,196.565 33.4478569,196.43 C39.1178569,191.3 44.5178569,186.71 48.8378569,179.96 C48.2978569,179.825 48.1628569,180.905 47.8928569,180.365 C48.0278569,179.96 47.8928569,179.285 48.4328569,179.15 C48.9728569,179.015 48.9728569,179.42 49.2428569,179.15 C49.3778569,178.475 50.0528569,178.34 50.0528569,177.53 Z M27.3728569,135.68 C27.5078569,136.22 27.1028569,136.085 27.1028569,136.355 C26.6978569,136.22 26.9678569,135.545 27.3728569,135.68 Z M111.137143,10.265 C111.677143,10.4 111.137143,10.805 111.407143,11.21 C110.867143,11.345 110.867143,10.535 111.137143,10.265 Z M109.382143,12.695 L108.842143,12.695 L108.842143,12.695 L108.842143,12.425 L108.842143,12.425 C109.112143,12.29 109.382143,12.425 109.382143,12.695 Z M106.547143,17.555 L106.547143,17.285 L106.547143,17.285 C106.682143,17.285 106.682143,17.15 106.682143,17.015 C107.087143,17.015 106.952143,17.825 106.547143,17.555 Z M118.697143,17.825 C118.427143,17.825 118.427143,17.42 118.427143,17.015 C118.832143,17.015 118.967143,17.69 118.697143,17.825 Z M106.412143,18.095 L106.412143,18.635 L106.412143,18.635 C105.872143,18.77 105.737143,17.96 106.412143,18.095 Z M105.737143,19.445 C105.737143,19.175 105.872143,19.04 105.872143,18.905 C106.412143,18.905 106.277143,19.58 105.737143,19.445 Z M106.952143,20.255 C106.547143,20.12 106.682143,19.31 107.222143,19.445 C107.357143,19.985 106.952143,19.985 106.952143,20.255 Z M106.277143,21.065 C105.872143,20.795 105.872143,21.065 105.467143,21.065 C105.332143,20.93 105.332143,20.795 105.332143,20.66 C105.467143,20.525 106.412143,20.39 106.277143,21.065 Z M118.562143,21.065 L117.752143,21.065 L117.752143,21.065 L117.752143,20.66 L117.752143,20.66 C118.157143,20.66 118.562143,20.66 118.562143,21.065 Z M103.847143,24.035 C104.117143,23.495 104.252143,22.82 104.657143,22.415 C105.332143,22.28 105.197143,23.36 104.927143,23.495 C104.792143,23.495 104.792143,23.09 104.792143,22.955 C104.387143,23.225 104.657143,24.17 103.847143,24.035 Z M103.712143,25.655 C103.172143,25.385 103.577143,24.575 103.847143,24.305 C104.252143,24.575 103.712143,25.385 103.712143,25.655 Z M104.927143,25.79 L104.522143,25.79 L104.522143,25.79 L104.522143,25.52 L104.522143,25.52 C104.792143,25.385 104.927143,25.52 104.927143,25.79 Z M104.117143,26.6 C103.847143,26.465 103.712143,26.195 103.712143,25.79 C104.117143,25.79 104.117143,26.195 104.117143,26.6 Z M103.172143,25.925 C103.577143,25.925 103.037143,26.87 103.712143,26.6 C103.577143,26.87 103.442143,27.005 103.172143,27.14 C103.037143,26.735 102.902143,26.33 103.172143,25.925 Z M117.077143,27.005 C117.212143,26.87 117.212143,26.6 117.212143,26.33 C117.617143,26.465 117.752143,27.005 117.077143,27.005 Z M103.982143,27.95 C103.307143,27.68 103.982143,27.14 104.117143,27.005 C104.252143,27.005 104.252143,27.14 104.522143,27.14 L104.522143,27.41 L104.522143,27.41 C104.117143,27.41 103.982143,27.545 103.982143,27.95 Z M105.467143,27.41 L105.062143,27.41 L105.062143,27.41 L105.062143,27.14 L105.062143,27.14 L105.467143,27.14 L105.467143,27.14 L105.467143,27.41 L105.467143,27.41 Z M115.187143,29.705 L114.782143,29.705 L114.782143,29.705 L114.782143,29.435 L114.782143,29.435 L115.187143,29.435 L115.187143,29.435 L115.187143,29.705 L115.187143,29.705 Z M101.687143,31.865 C101.417143,31.595 101.552143,30.515 101.687143,30.38 C102.362143,30.515 101.822143,31.46 101.687143,31.865 Z M102.902143,31.055 L102.902143,30.515 L102.902143,30.515 C103.307143,30.245 103.307143,31.19 102.902143,31.055 Z M114.242143,31.865 L114.242143,31.325 L114.242143,31.325 C114.647143,31.055 114.647143,32 114.242143,31.865 Z M103.307143,32.405 C103.307143,32.135 103.442143,32 103.442143,31.865 C103.712143,31.73 103.712143,32.675 103.307143,32.405 Z M101.282143,32.675 L101.282143,32.27 L101.282143,32.27 C101.417143,32.27 101.417143,32.27 101.417143,32.135 C101.687143,32.135 101.687143,32.81 101.282143,32.675 Z M100.742143,33.89 C100.607143,33.35 101.147143,33.485 101.012143,32.945 C101.552143,32.81 101.417143,33.215 101.687143,33.215 C101.552143,33.62 101.147143,33.755 100.742143,33.89 Z M100.742143,35.24 C100.472143,35.24 100.337143,34.97 100.472143,34.565 C100.877143,34.43 101.012143,34.97 100.742143,35.24 Z M101.552143,35.51 C101.417143,35.24 101.687143,35.105 101.687143,34.835 C101.957143,34.835 101.957143,35.78 101.552143,35.51 Z M99.7971431,37.805 C99.3921431,37.67 100.067143,35.915 100.202143,35.24 C100.337143,36.05 100.337143,37.13 99.7971431,37.805 Z M100.877143,36.995 C101.012143,36.59 101.417143,36.32 101.417143,35.645 C101.957143,35.78 101.417143,36.995 100.877143,36.995 Z M100.607143,37.13 C100.202143,36.995 100.742143,36.32 100.742143,36.05 C101.147143,36.32 100.607143,36.86 100.607143,37.13 Z M102.092143,38.345 C101.552143,37.805 102.092143,36.86 102.227143,36.32 C103.037143,36.725 101.822143,37.4 102.092143,38.345 Z M100.877143,38.48 L100.607143,38.48 L100.607143,38.48 L100.607143,38.075 L100.607143,38.075 L100.877143,38.075 L100.877143,38.075 L100.877143,38.48 L100.877143,38.48 Z M112.892143,38.885 L112.892143,38.615 L112.892143,38.615 C113.027143,38.615 113.027143,38.615 113.027143,38.48 C113.297143,38.345 113.297143,39.155 112.892143,38.885 Z M98.9871431,40.235 C98.3121431,39.965 99.2571431,38.075 99.9321431,38.615 C99.5271431,39.02 99.1221431,39.56 98.9871431,40.235 Z M99.3921431,39.695 C99.9321431,39.83 99.6621431,40.235 99.6621431,40.505 C99.2571431,40.64 99.5271431,39.965 99.3921431,39.695 Z M98.1771431,41.855 C98.0421431,41.45 98.4471431,41.45 98.3121431,41.045 C98.7171431,41.045 99.1221431,41.18 98.9871431,41.72 C98.5821431,41.315 98.7171431,41.99 98.1771431,41.855 Z M99.6621431,42.8 C98.8521431,42.53 99.9321431,41.72 99.9321431,41.045 C100.877143,41.585 99.3921431,41.99 99.6621431,42.8 Z M111.947143,43.205 C111.677143,42.53 112.352143,42.665 112.217143,42.125 C112.892143,42.125 112.217143,43.07 111.947143,43.205 Z M100.607143,42.53 L100.202143,42.53 L100.202143,42.53 L100.202143,42.125 L100.202143,42.125 L100.607143,42.125 L100.607143,42.125 L100.607143,42.53 L100.607143,42.53 Z M99.1221431,42.665 L98.5821431,42.665 L98.5821431,42.665 L98.5821431,42.395 L98.5821431,42.395 C98.9871431,42.26 99.1221431,42.395 99.1221431,42.665 Z M113.567143,42.665 L113.162143,42.665 L113.162143,42.665 L113.162143,42.395 L113.162143,42.395 L113.567143,42.395 L113.567143,42.395 L113.567143,42.665 L113.567143,42.665 Z M101.282143,42.935 L101.282143,42.53 L101.282143,42.53 C101.687143,42.26 101.687143,43.205 101.282143,42.935 Z M98.4471431,43.745 L97.7721431,43.745 L97.7721431,43.745 C97.9071431,43.475 98.0421431,43.205 98.1771431,42.8 C98.8521431,42.935 98.0421431,43.34 98.4471431,43.745 Z M99.7971431,45.095 C99.9321431,44.69 99.9321431,44.015 100.067143,43.475 C100.742143,43.34 99.7971431,44.285 100.607143,44.285 C100.337143,44.555 100.202143,45.095 99.7971431,45.095 Z M97.3671431,46.175 C96.6921431,45.77 97.9071431,44.96 97.3671431,44.555 C97.3671431,44.42 97.6371431,44.42 97.7721431,44.42 C97.9071431,45.365 97.9071431,45.635 97.7721431,46.58 C97.2321431,46.85 97.6371431,45.635 97.3671431,46.175 Z M98.0421431,47.39 C98.0421431,46.985 97.9071431,46.445 98.1771431,46.175 C98.4471431,46.58 98.7171431,47.39 98.0421431,47.39 Z M100.607143,46.85 C100.337143,46.715 100.067143,46.58 100.067143,46.175 C100.337143,46.31 100.607143,46.445 100.607143,46.85 Z M96.5571431,48.065 C96.5571431,47.39 97.2321431,47.525 96.8271431,46.85 L97.3671431,46.85 L97.3671431,46.85 C97.5021431,47.12 97.5021431,47.39 97.5021431,47.795 C96.9621431,47.525 97.0971431,47.93 96.5571431,48.065 Z M98.5821431,49.01 L98.3121431,49.01 L98.3121431,49.01 L98.3121431,48.605 L98.3121431,48.605 L98.5821431,48.605 L98.5821431,48.605 L98.5821431,49.01 L98.5821431,49.01 Z M95.7471431,51.305 C95.6121431,51.17 95.4771431,50.9 95.6121431,50.63 C95.7471431,50.63 96.0171431,50.63 96.0171431,50.495 C96.5571431,50.495 96.1521431,51.305 95.7471431,51.305 Z M108.572143,51.71 C108.437143,51.305 108.977143,51.44 108.842143,50.9 C109.247143,51.17 109.112143,51.71 108.572143,51.71 Z M97.5021431,52.385 C97.6371431,51.845 97.6371431,51.17 98.0421431,50.9 C98.1771431,51.17 97.9071431,52.25 97.5021431,52.385 Z M95.8821431,52.115 L95.3421431,52.115 L95.3421431,52.115 L95.3421431,51.44 L95.3421431,51.44 C95.8821431,51.305 95.8821431,51.575 95.8821431,52.115 Z M96.4221431,52.385 L96.4221431,52.115 L96.4221431,52.115 C96.5571431,52.115 96.5571431,51.98 96.5571431,51.845 C96.8271431,51.845 96.8271431,52.655 96.4221431,52.385 Z M107.087143,52.655 C106.817143,52.655 106.952143,52.385 106.952143,52.25 C107.222143,52.115 107.222143,52.385 107.222143,52.52 C107.087143,52.52 107.087143,52.655 107.087143,52.655 Z M94.8021431,54.815 C94.9371431,54.14 94.8021431,53.06 95.2071431,52.52 C95.4771431,52.52 95.4771431,52.655 95.7471431,52.655 C95.7471431,53.735 95.3421431,54.41 94.8021431,54.815 Z M96.9621431,54.275 C97.0971431,53.87 97.3671431,53.87 96.8271431,53.735 C96.9621431,53.33 97.5021431,52.925 97.7721431,53.195 C97.6371431,53.735 97.5021431,54.14 96.9621431,54.275 Z M93.1821431,54.68 C93.0471431,54.815 93.0471431,54.815 92.9121431,54.815 L92.9121431,55.085 L92.9121431,55.085 C93.3171431,55.355 93.4521431,54.545 93.1821431,54.68 Z M95.6121431,54.95 L95.2071431,54.95 L95.2071431,54.95 L95.2071431,54.68 L95.2071431,54.68 L95.6121431,54.68 L95.6121431,54.68 L95.6121431,54.95 L95.6121431,54.95 Z M107.357143,55.355 C107.357143,54.815 107.627143,54.815 108.032143,54.815 C107.897143,55.085 107.762143,55.355 107.357143,55.355 Z M96.8271431,55.76 C96.4221431,55.76 96.8271431,55.22 96.8271431,55.085 C97.2321431,55.22 96.9621431,55.625 96.8271431,55.76 Z M94.9371431,55.76 L94.3971431,55.76 L94.3971431,55.76 L94.3971431,55.49 L94.3971431,55.49 C94.8021431,55.355 94.9371431,55.49 94.9371431,55.76 Z M94.9371431,57.515 C95.2071431,56.975 95.2071431,57.11 94.9371431,56.435 C95.4771431,56.57 95.3421431,55.895 95.6121431,55.625 C95.8821431,56.165 95.6121431,57.515 94.9371431,57.515 Z M92.7771431,55.76 C92.7771431,56.165 92.6421431,56.165 92.6421431,56.435 C93.0471431,56.705 93.0471431,55.76 92.7771431,55.76 Z M93.9921431,58.19 C93.0471431,57.92 94.2621431,56.975 94.1271431,56.3 C94.9371431,56.57 93.9921431,57.785 93.9921431,58.19 Z M106.952143,57.245 L106.412143,57.245 L106.412143,57.245 C106.277143,56.975 106.547143,56.84 106.547143,56.57 C107.087143,56.435 106.817143,56.975 106.952143,57.245 Z M105.872143,57.515 C105.737143,57.515 105.737143,57.11 105.737143,56.975 C106.412143,56.84 105.872143,57.245 105.872143,57.515 Z M95.6121431,60.215 C95.0721431,60.08 95.4771431,58.73 96.0171431,58.73 C95.8821431,59.135 95.7471431,59.405 95.8821431,59.945 C95.7471431,59.945 95.6121431,60.08 95.6121431,60.215 Z M93.3171431,59.675 C93.1821431,59.135 93.8571431,59.135 94.2621431,59 C94.3971431,59.675 93.7221431,59.54 93.3171431,59.675 Z M106.142143,59.81 C106.142143,59.405 106.817143,59.405 106.682143,59.945 C106.412143,60.08 106.412143,59.81 106.142143,59.81 Z M93.4521431,62.645 C93.0471431,62.24 93.0471431,61.295 92.6421431,60.755 C92.9121431,60.35 93.3171431,60.89 93.4521431,60.215 C93.9921431,60.755 93.1821431,61.565 93.4521431,62.645 Z M92.7771431,62.105 C92.6421431,62.105 92.6421431,61.7 92.6421431,61.43 C93.0471431,61.565 93.0471431,61.835 92.7771431,62.105 Z M92.5071431,65.21 C92.2371431,64.94 91.8321431,64.805 91.8321431,64.4 C92.1021431,63.995 92.3721431,63.59 92.3721431,62.915 C92.5071431,62.78 92.7771431,62.78 92.7771431,62.645 C93.3171431,62.78 93.3171431,63.185 92.9121431,63.59 C92.7771431,63.59 92.7771431,63.32 92.7771431,63.05 C92.3721431,63.32 92.9121431,63.995 92.7771431,64.4 C92.6421431,64.265 92.5071431,64.265 92.3721431,64.265 C92.2371431,64.67 92.7771431,64.805 92.5071431,65.21 Z M91.8321431,66.425 C91.5621431,66.29 91.5621431,65.75 91.8321431,65.48 C92.1021431,65.345 92.3721431,66.02 92.5071431,65.48 C92.9121431,65.885 92.2371431,66.425 91.8321431,66.425 Z M94.1271431,66.695 C93.7221431,66.56 93.9921431,66.02 93.9921431,65.615 C94.6671431,65.615 93.8571431,66.155 94.1271431,66.695 Z M102.092143,67.235 C101.687143,67.235 101.957143,66.695 102.092143,66.695 C102.497143,66.695 102.092143,67.235 102.092143,67.235 Z M93.3171431,67.91 C93.1821431,67.505 93.5871431,67.64 93.4521431,67.1 C94.1271431,66.965 93.7221431,68.045 93.3171431,67.91 Z M90.4821431,70.475 C90.7521431,69.53 91.0221431,67.91 91.5621431,67.1 C92.3721431,67.235 91.6971431,68.045 91.8321431,68.72 C91.6971431,68.855 91.4271431,68.99 91.1571431,68.855 C91.0221431,69.395 91.2921431,70.34 90.4821431,70.475 Z M92.3721431,68.045 C92.5071431,67.91 92.5071431,67.505 92.6421431,67.235 C93.0471431,67.37 92.7771431,68.315 92.3721431,68.045 Z M102.362143,69.395 L102.092143,69.395 L102.092143,69.395 L102.092143,69.125 L102.092143,69.125 C102.227143,69.125 102.227143,68.99 102.227143,68.855 L102.497143,68.855 L102.497143,68.855 L102.497143,69.26 L102.497143,69.26 C102.362143,69.26 102.362143,69.26 102.362143,69.395 Z M94.8021431,77.63 C96.0441431,75.3944 96.9433511,72.01616 98.5509959,70.3335978 L98.5810046,70.303 L98.5810046,70.329273 C98.561032,71.4418519 98.2721431,73.44 97.2321431,73.31 C96.9621431,74.795 96.2871431,76.955 94.8021431,77.63 Z M90.8871431,71.15 C90.8871431,70.88 90.8871431,70.475 91.2921431,70.475 C91.2921431,70.88 91.2921431,71.285 90.8871431,71.15 Z M90.0771431,72.635 C89.6721431,71.96 90.3471431,71.555 90.3471431,70.88 C91.1571431,71.15 90.0771431,71.555 90.2121431,72.095 C90.4821431,72.23 90.4821431,71.96 90.4821431,71.825 C90.8871431,72.095 90.6171431,72.905 90.0771431,72.635 Z M91.0221431,72.5 C91.0221431,71.96 91.4271431,71.96 91.8321431,71.825 C91.5621431,72.095 91.4271431,72.5 91.0221431,72.5 Z M89.4021431,75.065 C89.5371431,74.66 89.5371431,73.985 89.5371431,73.31 C89.9421431,73.175 89.9421431,73.58 90.2121431,73.58 C90.0771431,74.255 89.9421431,74.93 89.4021431,75.065 Z M100.067143,75.875 C99.5271431,75.47 100.472143,75.2 100.202143,74.525 C101.012143,74.66 100.067143,75.47 100.067143,75.875 Z M88.8621431,76.145 C88.8621431,75.875 89.4021431,76.145 89.4021431,75.74 C89.8071431,75.74 89.8071431,76.28 89.5371431,76.55 C89.1321431,76.685 89.2671431,76.145 88.8621431,76.145 Z M96.8271431,76.82 L96.5571431,76.82 L96.5571431,76.82 L96.5571431,76.55 L96.5571431,76.55 C96.6921431,76.55 96.6921431,76.415 96.6921431,76.415 C96.9621431,76.415 96.9621431,76.685 96.8271431,76.82 Z M95.0721431,83.03 C94.9371431,82.625 95.3421431,82.76 95.3421431,82.49 C95.7471431,82.625 95.3421431,83.165 95.0721431,83.03 Z M94.1271431,86.675 C93.8571431,86.54 93.7221431,86.135 93.9921431,85.865 C94.3971431,86 94.2621431,86.54 94.1271431,86.675 Z M142.727143,93.695 C143.132143,92.885 143.807143,92.345 144.617143,91.94 C144.077143,92.615 143.672143,93.425 142.727143,93.695 Z M100.202143,93.965 L100.202143,93.56 L100.202143,93.56 C100.742143,93.29 100.742143,94.235 100.202143,93.965 Z M141.917143,94.505 L141.512143,94.505 L141.512143,94.505 L141.512143,94.235 L141.512143,94.235 C141.647143,94.235 141.647143,94.1 141.782143,93.965 C142.052143,94.1 142.052143,94.235 141.917143,94.505 Z M140.702143,95.315 C140.297143,95.18 140.837143,94.64 141.242143,94.64 C141.377143,95.18 140.837143,95.045 140.702143,95.315 Z M138.812143,96.8 C138.677143,95.855 139.892143,95.99 140.162143,95.315 C140.972143,95.72 139.082143,96.935 138.812143,96.8 Z M96.4221431,97.205 C95.8821431,96.935 96.6921431,96.53 96.6921431,96.26 C97.3671431,96.53 96.4221431,96.935 96.4221431,97.205 Z M131.522143,102.335 C133.412143,100.04 136.112143,98.69 138.272143,96.8 C137.192143,98.555 133.817143,100.58 131.522143,102.335 Z M94.8021431,98.42 C94.8021431,97.745 95.6121431,98.015 95.6121431,97.205 C96.4221431,97.475 95.0721431,98.825 94.8021431,98.42 Z M140.162143,98.42 C140.162143,98.285 140.567143,97.61 139.892143,97.745 C140.027143,98.015 139.892143,98.285 140.162143,98.42 Z M92.9121431,98.69 C92.5071431,98.555 93.0471431,98.15 93.1821431,97.88 C93.8571431,98.15 93.0471431,98.42 92.9121431,98.69 Z M138.812143,99.23 C139.217143,98.96 139.622143,98.825 139.757143,98.42 C139.217143,98.42 138.947143,98.69 138.812143,99.23 Z M94.1271431,99.365 C93.9921431,98.96 94.2621431,98.96 94.2621431,98.555 L94.8021431,98.555 L94.8021431,98.555 C94.6671431,98.96 94.6671431,99.365 94.1271431,99.365 Z M92.1021431,99.365 L92.1021431,99.095 L92.1021431,99.095 C92.2371431,99.095 92.2371431,98.96 92.3721431,98.825 C92.6421431,98.825 92.5071431,99.635 92.1021431,99.365 Z M85.0821431,102.065 C83.8671431,101.525 85.2171431,99.905 85.4871431,99.23 C85.8921431,100.175 84.9471431,100.985 85.0821431,102.065 Z M90.3471431,101.12 C90.6171431,100.715 90.7521431,100.175 91.2921431,100.04 C91.2921431,100.58 90.8871431,100.985 90.3471431,101.12 Z M135.842143,100.985 C135.167143,100.985 135.437143,99.905 136.247143,100.175 C136.247143,100.58 136.112143,100.85 135.842143,100.985 Z M92.3721431,101.12 C92.2371431,100.58 92.6421431,100.31 93.1821431,100.175 C93.0471431,100.715 92.6421431,100.985 92.3721431,101.12 Z M134.762143,101.66 L134.762143,101.12 L134.762143,101.12 C135.167143,100.85 135.167143,101.93 134.762143,101.66 Z M91.1571431,102.47 C90.8871431,102.2 91.4271431,101.39 91.9671431,101.255 C92.1021431,102.065 91.5621431,102.2 91.1571431,102.47 Z M89.1321431,102.335 C88.9971431,101.795 89.4021431,101.93 89.6721431,101.795 C89.8071431,102.2 89.5371431,102.335 89.1321431,102.335 Z M133.412143,102.74 C133.277143,102.065 134.222143,102.47 134.222143,101.93 C135.032143,102.2 133.952143,102.74 133.412143,102.74 Z M83.8671431,104.765 C83.4621431,104.495 83.7321431,104.09 83.7321431,103.55 C83.8671431,103.685 84.0021431,103.685 84.2721431,103.685 C84.4071431,103.01 83.5971431,102.74 84.0021431,102.335 C84.8121431,103.01 84.2721431,103.955 83.8671431,104.765 Z M128.957143,104.495 C129.362143,103.415 130.577143,102.47 131.387143,102.335 C130.712143,103.28 129.767143,103.82 128.957143,104.495 Z M87.5121431,104.765 C87.2421431,103.955 88.1871431,103.01 88.8621431,102.74 C88.5921431,103.685 87.7821431,103.955 87.5121431,104.765 Z M90.0771431,103.55 L90.0771431,103.145 L90.0771431,103.145 C90.4821431,102.875 90.4821431,103.82 90.0771431,103.55 Z M128.282143,105.035 C127.607143,104.9 128.147143,104.36 128.552143,104.36 C128.552143,104.63 128.417143,104.765 128.282143,105.035 Z M83.5971431,106.385 C82.5171431,106.25 83.4621431,105.305 83.5971431,104.9 C84.0021431,105.17 83.3271431,105.71 83.5971431,106.385 Z M127.472143,105.71 L127.202143,105.71 L127.202143,105.71 L127.202143,105.305 L127.202143,105.305 L127.472143,105.305 L127.472143,105.305 L127.472143,105.71 L127.472143,105.71 Z M82.7871431,107.465 L82.7871431,106.925 L82.7871431,106.925 C83.1921431,106.79 83.1921431,107.735 82.7871431,107.465 Z M82.7871431,108.815 L82.3821431,108.815 L82.3821431,108.815 L82.3821431,108.41 L82.3821431,108.41 L82.7871431,108.41 L82.7871431,108.41 L82.7871431,108.815 L82.7871431,108.815 Z M103.172143,27.14 C103.037143,27.815 102.902143,28.49 102.362143,28.76 C102.109018,28.25375 102.567807,27.5101953 103.071091,27.1967554 L103.172143,27.14 L103.172143,27.14 Z M100.067143,67.775 C99.5271431,68.45 99.6621431,69.53 99.2571431,70.34 C99.0141431,70.4615 98.9898431,70.25495 98.6921681,70.212425 L98.675,70.212 L98.7647927,70.1239827 C98.8374551,70.057472 98.9115431,69.9944 98.9871431,69.935 C102.767143,59 108.707143,49.01 112.082143,37.13 C108.302143,45.5 104.252143,55.22 101.012143,63.185 C98.1771431,67.64 96.1521431,72.77 93.5871431,77.495 C95.3421431,65.345 100.337143,53.06 102.497143,41.18 C103.982143,38.885 104.387143,34.295 106.142143,32.135 C106.142143,31.595 105.872143,31.325 105.872143,30.785 C108.167143,25.25 110.597143,19.175 113.162143,13.505 C114.647143,12.83 114.917143,9.725 117.482143,9.59 C118.697143,18.095 114.917143,26.06 113.702143,32.945 C114.107143,32.81 113.702143,32 114.377143,32.135 C111.812143,39.83 109.922143,45.5 106.547143,52.52 C106.412143,53.06 107.087143,52.655 106.952143,53.195 C106.952143,53.87 106.682143,53.195 106.412143,53.195 C104.657143,58.595 102.092143,63.725 100.067143,67.775 Z M96.1521431,49.82 C96.1521431,49.415 96.2871431,49.145 96.4221431,49.01 C96.8271431,49.01 97.0971431,49.955 96.8271431,50.225 C96.2871431,50.36 96.5571431,49.82 96.1521431,49.82 Z M98.892,35.923 L98.9104631,35.905415 C98.9898431,35.861 99.1221431,35.9555 99.1221431,36.05 C98.8521431,36.32 98.8521431,36.86 98.3121431,36.86 C98.5821431,38.48 97.6371431,39.155 97.6371431,40.505 C97.3671431,40.37 97.0971431,40.37 97.2321431,40.91 C97.0971431,41.45 97.6371431,40.505 97.6371431,41.045 C97.3671431,42.125 96.1521431,43.07 96.4221431,44.015 C96.4221431,43.88 96.6921431,43.07 96.8271431,43.475 C96.6921431,43.88 96.5571431,44.42 96.4221431,44.825 C96.1521431,44.69 96.2871431,44.285 96.0171431,44.285 C96.0171431,46.31 95.0721431,48.2 94.9371431,50.09 C94.6671431,50.225 94.6671431,49.955 94.3971431,49.955 C94.3971431,53.06 93.0471431,54.95 92.7771431,58.19 C92.2371431,58.325 91.8321431,58.46 91.9671431,59.135 C92.1021431,59.81 92.3721431,58.595 92.5071431,59.135 C91.8321431,60.1475 91.5321431,61.3475 91.2946431,62.4225 L91.224,62.741 C91.3512056,62.5901563 91.5621431,62.526875 91.5621431,62.78 C91.2921431,63.59 91.0221431,64.13 90.4821431,64.535 C90.6171431,64.94 91.0221431,64.265 91.0221431,64.805 C90.6171431,65.075 90.7521431,65.75 90.2121431,65.885 C90.4821431,65.885 90.6171431,65.75 90.7521431,66.02 C89.5371431,66.83 90.6171431,68.99 89.2671431,69.665 C88.9971431,70.205 89.5371431,70.07 89.5371431,70.34 C89.2671431,70.61 89.2671431,71.015 89.2671431,71.555 C89.1321431,71.42 88.7271431,71.285 88.7271431,71.555 C89.4021431,71.825 88.8621431,73.58 88.3221431,73.175 C88.7271431,75.47 87.3771431,78.305 86.8371431,80.87 C86.5671431,80.87 86.7021431,80.6 86.4321431,80.6 C85.8921431,84.92 85.3521431,90.32 83.0571431,93.695 C83.0571431,93.56 82.9221431,93.425 82.6521431,93.425 C81.7071431,94.1 82.3821431,95.18 82.3821431,95.99 C82.6521431,95.99 82.7871431,95.72 82.9221431,95.99 C81.5721431,101.525 79.6821431,107.465 78.1971431,112.595 C78.6021431,114.755 79.9521431,117.59 81.1671431,119.48 C82.3821431,119.615 82.9221431,120.695 84.0021431,119.615 L84.0021431,118.67 L84.0021431,118.67 C90.3471431,111.65 94.8021431,102.875 102.497143,97.205 C104.117143,107.465 108.437143,116.915 118.697143,116.645 C122.882143,115.43 127.202143,112.325 129.362143,109.22 C129.497143,109.355 129.632143,109.355 129.902143,109.355 C130.442143,106.925 133.142143,106.655 133.817143,104.36 C133.952143,104.63 133.952143,105.17 134.492143,105.035 C134.897143,104.495 134.222143,104.36 134.222143,103.685 C134.897143,103.685 136.112143,103.145 136.247143,102.065 C135.977143,102.065 135.842143,102.335 135.707143,102.065 C136.112143,100.58 138.002143,101.255 138.137143,99.5 C137.192143,99.635 137.327143,100.04 136.517143,100.31 C136.652143,98.69 138.002143,99.365 138.272143,98.015 C138.542143,98.15 138.542143,98.42 138.812143,98.42 C138.812143,97.475 139.757143,97.34 140.297143,97.205 C140.297143,96.125 141.377143,95.99 141.917143,95.315 C141.782143,95.585 141.917143,95.855 142.187143,95.855 C143.132143,93.02 147.047143,92.345 146.912143,88.97 C137.732143,95.18 129.497143,102.875 120.317143,108.545 C118.427143,110.705 115.727143,111.11 112.757143,111.245 C112.622143,110.84 112.217143,110.84 112.352143,110.435 C111.812143,110.3 112.082143,110.975 111.812143,110.975 C107.087143,107.195 109.517143,97.61 107.087143,92.345 C106.817143,92.21 106.412143,92.21 105.872143,92.21 C105.602143,91.67 105.602143,91.535 105.062143,90.995 C104.252143,91.13 103.982143,90.59 103.847143,90.185 C96.2871431,90.995 92.5071431,97.745 87.9171431,101.66 C88.5921431,100.85 88.1871431,98.96 89.4021431,98.69 C89.1321431,97.475 89.6721431,95.45 90.4821431,95.045 C89.6721431,93.29 92.3721431,91.94 91.9671431,90.185 C93.4521431,89.105 95.3421431,86.135 95.7471431,83.975 L96.1521431,83.975 L96.1521431,83.975 L96.1521431,83.435 L96.1521431,83.435 L96.4221431,83.435 L96.4221431,83.435 C96.6921431,82.49 98.0421431,81.95 97.5021431,80.6 C97.9071431,81.14 98.1771431,80.6 98.3121431,80.06 C98.3121431,79.925 97.7721431,80.06 97.7721431,79.79 L98.081106,79.5734376 L98.081106,79.5734376 L98.313,79.387 L98.3583064,79.464137 C98.5366943,79.7186943 98.6359453,79.2610187 98.5136127,79.2306829 L98.487,79.232 L98.6305492,79.1004256 C100.828023,76.9429608 100.765419,73.4496552 103.307143,71.15 C102.767143,70.34 103.577143,69.8 103.172143,68.72 C103.442143,68.72 103.307143,69.26 103.847143,69.125 C103.577143,67.91 104.657143,68.045 104.927143,67.505 C104.117143,66.02 106.952143,64.4 106.142143,62.915 C107.492143,62.78 106.817143,60.485 108.167143,60.35 C107.627143,59.135 109.112143,59.135 109.112143,58.055 C108.707143,58.055 108.572143,57.785 108.572143,57.38 C108.842143,57.38 108.842143,57.65 109.382143,57.515 C109.382143,56.975 109.517143,56.84 109.382143,56.3 C109.787143,56.3 110.192143,55.895 109.787143,55.49 L110.462143,55.49 L110.462143,55.49 C109.787143,54.14 111.272143,53.195 111.812143,52.115 C111.947143,51.44 110.867143,51.17 111.272143,50.9 C111.542143,50.63 111.812143,50.9 112.082143,51.035 C112.622143,47.795 114.512143,44.825 115.457143,41.18 C115.322143,41.045 114.917143,41.045 114.782143,40.775 C115.457143,40.64 115.457143,41.045 115.862143,40.775 C115.862143,38.75 117.752143,36.995 117.077143,35.375 C117.077143,35.645 117.077143,35.78 116.942143,35.915 L116.942143,35.105 L116.942143,35.105 C117.347143,35.105 117.482143,35.375 117.752143,35.105 C118.157143,31.865 120.317143,28.625 119.912143,25.655 C120.587143,25.385 120.317143,24.17 120.857143,23.495 C120.452143,23.63 120.317143,23.36 120.317143,23.09 C120.587143,22.955 120.452143,22.55 120.992143,22.685 C121.802143,17.825 122.477143,13.235 120.047143,9.185 C118.697143,8.105 116.807143,7.7 115.997143,6.215 C107.762143,5.405 107.492143,14.855 103.982143,19.85 C104.252143,20.525 104.117143,21.065 103.712143,21.605 C103.442143,22.145 103.172143,23.9 102.902143,22.955 C102.767143,23.495 102.632143,23.495 102.902143,24.035 C101.822143,24.44 101.957143,25.655 102.092143,26.6 L101.552143,26.6 L101.552143,26.6 C102.497143,28.22 100.067143,28.895 100.607143,30.38 C100.742143,30.245 100.877143,29.165 101.012143,29.705 C100.119643,32.3825 99.5883931,33.7354167 98.9634857,35.6971065 L98.892,35.923 Z" id="ajh" fill="#34495E" fill-rule="nonzero"></path>
                </g>
            </g>
        </g>
    </g>
</svg>